<svg width="49" height="49" viewBox="0 0 49 49" fill="none" xmlns="http://www.w3.org/2000/svg">
<path d="M1 1H47.75V47.75H1V1Z" fill="white" stroke="#FEC63E" stroke-width="2"/>
<path fill-rule="evenodd" clip-rule="evenodd" d="M21.8648 36.6726C21.8648 36.8537 22.0222 37 22.2172 37H27.2411C27.4361 37 27.5935 36.8537 27.5935 36.6726V23.8976H31.2357C31.4193 23.8976 31.5715 23.7676 31.5872 23.597L31.937 19.749C31.9412 19.7039 31.9351 19.6584 31.9194 19.6156C31.9036 19.5727 31.8785 19.5334 31.8455 19.5C31.8126 19.4666 31.7725 19.44 31.7279 19.4217C31.6833 19.4035 31.6351 19.394 31.5864 19.3939H27.5935V16.6631C27.5935 16.0229 28.1514 15.5037 28.8405 15.5037H31.6476C31.8426 15.5037 32 15.3574 32 15.1762V11.3274C32 11.2406 31.9629 11.1573 31.8968 11.0959C31.8307 11.0345 31.7411 11 31.6476 11H26.9053C25.5687 11 24.2869 11.4933 23.3417 12.3715C22.3966 13.2496 21.8657 14.4406 21.8657 15.6824V19.3939H19.3524C19.2591 19.3939 19.1696 19.4283 19.1035 19.4896C19.0375 19.5508 19.0002 19.6339 19 19.7206V23.5702C19 23.7514 19.1574 23.8976 19.3524 23.8976H21.8648V36.6726Z" fill="#FEC63E"/>
</svg>
