<svg width="49" height="49" viewBox="0 0 49 49" fill="none" xmlns="http://www.w3.org/2000/svg">
<rect x="1.125" y="1" width="46.75" height="46.75" fill="white" stroke="#FEC63E" stroke-width="2"/>
<path d="M35.5471 29.1683C35.5471 29.8747 35.4079 30.5741 35.1376 31.2267C34.8673 31.8792 34.4711 32.4722 33.9717 32.9717C33.4722 33.4711 32.8792 33.8673 32.2267 34.1376C31.5741 34.4079 30.8747 34.5471 30.1683 34.5471H19.8317C18.4052 34.5471 17.037 33.9804 16.0283 32.9717C15.0196 31.963 14.4529 30.5948 14.4529 29.1683V18.8309C14.4529 17.4043 15.0196 16.0362 16.0283 15.0275C17.037 14.0188 18.4052 13.4521 19.8317 13.4521H30.1683C31.5948 13.4521 32.963 14.0188 33.9717 15.0275C34.9804 16.0362 35.5471 17.4043 35.5471 18.8309V29.1683ZM38 18.8309C38 14.5059 34.4932 11 30.1675 11H19.8325C15.5059 11 12 14.5059 12 18.8309V29.1683C12 33.4932 15.5068 37 19.8325 37H30.1675C32.2448 37 34.237 36.1748 35.7059 34.7059C37.1748 33.237 38 31.2448 38 29.1675V18.8309ZM25.0439 28.2803C23.9535 28.279 22.9081 27.8452 22.1371 27.0742C21.366 26.3032 20.9323 25.2578 20.931 24.1674C20.9323 23.077 21.366 22.0316 22.1371 21.2606C22.9081 20.4895 23.9535 20.0558 25.0439 20.0545C26.1343 20.0556 27.1798 20.4892 27.9509 21.2603C28.722 22.0314 29.1557 23.0769 29.1567 24.1674C29.1557 25.2578 28.722 26.3033 27.9509 27.0744C27.1798 27.8455 26.1343 28.2792 25.0439 28.2803ZM25.0439 17.747C21.5038 17.747 18.6235 20.6273 18.6235 24.1674C18.6235 27.7083 21.5038 30.5877 25.0439 30.5877C28.5848 30.5877 31.4651 27.7083 31.4651 24.1674C31.4651 20.6273 28.5848 17.747 25.0439 17.747ZM31.8396 15.7864C31.6389 15.7864 31.4401 15.826 31.2546 15.9028C31.0691 15.9796 30.9006 16.0922 30.7587 16.2342C30.6167 16.3761 30.5041 16.5447 30.4273 16.7301C30.3504 16.9156 30.3109 17.1144 30.3109 17.3152C30.3109 17.5159 30.3504 17.7147 30.4273 17.9002C30.5041 18.0856 30.6167 18.2542 30.7587 18.3961C30.9006 18.5381 31.0691 18.6507 31.2546 18.7275C31.4401 18.8043 31.6389 18.8439 31.8396 18.8439C32.2451 18.8439 32.6339 18.6828 32.9206 18.3961C33.2073 18.1094 33.3683 17.7206 33.3683 17.3152C33.3683 16.9097 33.2073 16.5209 32.9206 16.2342C32.6339 15.9475 32.2451 15.7864 31.8396 15.7864Z" fill="#FEC63E"/>
</svg>
