<svg width="49" height="49" viewBox="0 0 49 49" fill="none" xmlns="http://www.w3.org/2000/svg">
<rect x="1.25" y="1" width="46.75" height="46.75" fill="white" stroke="#FEC63E" stroke-width="2"/>
<path fill-rule="evenodd" clip-rule="evenodd" d="M40.8798 14.1176C39.8628 14.5714 38.7438 14.8466 37.6478 15.0281C38.1678 14.9413 38.9358 14.0121 39.2428 13.6353C39.7108 13.0622 40.0998 12.4073 40.3188 11.702C40.3468 11.6468 40.3688 11.5777 40.3128 11.5353C40.2428 11.5087 40.1968 11.5225 40.1408 11.5501C38.9274 12.1892 37.6377 12.6763 36.3018 13.0001C36.2555 13.0143 36.2061 13.0154 36.1593 13.0031C36.1124 12.9909 36.07 12.9659 36.0368 12.931C35.9342 12.8096 35.8222 12.6961 35.7018 12.5917C35.1473 12.1205 34.5192 11.7408 33.8418 11.4673C32.9376 11.106 31.9624 10.9509 30.9888 11.0135C30.0432 11.077 29.1213 11.3339 28.2819 11.7681C27.441 12.2017 26.6986 12.7998 26.0999 13.5258C25.4786 14.2797 25.0333 15.1593 24.7959 16.1022C24.5719 17.0097 24.5899 17.9053 24.7259 18.8216C24.7479 18.9735 24.7339 18.9942 24.5949 18.9735C19.3189 18.2012 14.9489 16.3389 11.3999 12.352C11.2459 12.1784 11.1619 12.1784 11.0359 12.3649C9.48291 14.6611 10.2359 18.3491 12.1759 20.1621C12.4349 20.4037 12.6999 20.6454 12.9869 20.8654C12.8829 20.8871 11.5919 20.749 10.4409 20.1621C10.2869 20.0664 10.2099 20.1216 10.1959 20.2933C10.1859 20.5426 10.2 20.7923 10.2379 21.039C10.5359 23.3668 12.1699 25.519 14.4079 26.3594C14.6739 26.4689 14.9669 26.5666 15.2539 26.6139C14.7439 26.7244 14.2189 26.8033 12.7569 26.6908C12.5749 26.6553 12.5049 26.7451 12.5749 26.9177C13.6729 29.8719 16.0449 30.7507 17.8209 31.2508C18.0589 31.2922 18.2969 31.2922 18.5349 31.3475C18.5209 31.3682 18.5069 31.3682 18.4929 31.3889C17.9029 32.2747 15.8609 32.9345 14.9099 33.263C13.1799 33.8588 11.2969 34.1271 9.46791 33.9495C9.17591 33.9071 9.11391 33.9101 9.03491 33.9495C8.95491 33.9988 9.02491 34.0679 9.11891 34.1419C9.48891 34.3835 9.86691 34.5976 10.2519 34.8047C11.4078 35.4126 12.6278 35.8938 13.8899 36.2399C20.4269 38.0202 27.7899 36.7123 32.6998 31.9018C36.5528 28.124 37.9038 22.915 37.9038 17.6981C37.9038 17.495 38.1478 17.3825 38.2938 17.274C39.2968 16.5313 40.0938 15.6416 40.8418 14.6483C41.0098 14.4254 40.9998 14.2271 40.9998 14.1453V14.1176C40.9998 14.0348 41.0098 14.0594 40.8798 14.1176Z" fill="#FEC63E"/>
</svg>
