<svg width="40" height="40" viewBox="0 0 40 40" fill="none" xmlns="http://www.w3.org/2000/svg">
<path d="M0 0H40V40H0V0Z" fill="black"/>
<path fill-rule="evenodd" clip-rule="evenodd" d="M16.276 35.597C16.276 35.82 16.456 36 16.679 36H22.424C22.647 36 22.827 35.82 22.827 35.597V19.874H26.992C27.202 19.874 27.376 19.714 27.394 19.504L27.794 14.768C27.7987 14.7125 27.7918 14.6565 27.7738 14.6038C27.7558 14.551 27.7271 14.5026 27.6894 14.4615C27.6517 14.4205 27.6059 14.3877 27.5549 14.3652C27.5039 14.3427 27.4487 14.3311 27.393 14.331H22.827V10.97C22.827 10.182 23.465 9.543 24.253 9.543H27.463C27.686 9.543 27.866 9.363 27.866 9.14V4.403C27.866 4.29612 27.8235 4.19361 27.748 4.11804C27.6724 4.04246 27.5699 4 27.463 4H22.04C20.5116 4 19.0457 4.60717 17.9649 5.68794C16.8842 6.76872 16.277 8.23456 16.277 9.763V14.331H13.403C13.2963 14.331 13.1939 14.3733 13.1184 14.4487C13.0428 14.524 13.0003 14.6263 13 14.733V19.471C13 19.694 13.18 19.874 13.403 19.874H16.276V35.597Z" fill="#FEC63E"/>
</svg>
