<svg width="40" height="40" viewBox="0 0 40 40" fill="none" xmlns="http://www.w3.org/2000/svg">
<rect width="40" height="40" fill="black"/>
<path d="M32.981 26.361C32.981 27.2304 32.8098 28.0912 32.4771 28.8944C32.1444 29.6975 31.6568 30.4273 31.042 31.042C30.4273 31.6568 29.6975 32.1444 28.8944 32.4771C28.0912 32.8098 27.2304 32.981 26.361 32.981H13.639C11.8833 32.981 10.1994 32.2835 8.95795 31.042C7.71646 29.8006 7.019 28.1167 7.019 26.361V13.638C7.019 11.8823 7.71646 10.1984 8.95795 8.95695C10.1994 7.71546 11.8833 7.018 13.639 7.018H26.361C28.1167 7.018 29.8006 7.71546 31.042 8.95695C32.2835 10.1984 32.981 11.8823 32.981 13.638V26.361ZM36 13.638C36 8.315 31.684 4 26.36 4H13.64C8.315 4 4 8.315 4 13.638V26.361C4 31.684 8.316 36 13.64 36H26.36C28.9167 36 31.3687 34.9844 33.1765 33.1765C34.9844 31.3687 36 28.9167 36 26.36V13.638ZM20.054 25.268C18.712 25.2664 17.4253 24.7326 16.4764 23.7836C15.5274 22.8347 14.9936 21.548 14.992 20.206C14.9936 18.864 15.5274 17.5773 16.4764 16.6284C17.4253 15.6794 18.712 15.1456 20.054 15.144C21.3961 15.1453 22.6829 15.6791 23.6319 16.6281C24.5809 17.5771 25.1147 18.8639 25.116 20.206C25.1147 21.5481 24.5809 22.8349 23.6319 23.7839C22.6829 24.7329 21.3961 25.2667 20.054 25.268ZM20.054 12.304C15.697 12.304 12.152 15.849 12.152 20.206C12.152 24.564 15.697 28.108 20.054 28.108C24.412 28.108 27.957 24.564 27.957 20.206C27.957 15.849 24.412 12.304 20.054 12.304ZM28.418 9.891C28.1709 9.891 27.9263 9.93967 27.698 10.0342C27.4697 10.1288 27.2623 10.2674 27.0876 10.4421C26.9129 10.6168 26.7743 10.8242 26.6797 11.0525C26.5852 11.2808 26.5365 11.5254 26.5365 11.7725C26.5365 12.0196 26.5852 12.2642 26.6797 12.4925C26.7743 12.7208 26.9129 12.9282 27.0876 13.1029C27.2623 13.2776 27.4697 13.4162 27.698 13.5108C27.9263 13.6053 28.1709 13.654 28.418 13.654C28.917 13.654 29.3956 13.4558 29.7484 13.1029C30.1013 12.7501 30.2995 12.2715 30.2995 11.7725C30.2995 11.2735 30.1013 10.7949 29.7484 10.4421C29.3956 10.0892 28.917 9.891 28.418 9.891Z" fill="#FEC63E"/>
</svg>
