<svg width="40" height="40" viewBox="0 0 40 40" fill="none" xmlns="http://www.w3.org/2000/svg">
<rect width="40" height="40" fill="black"/>
<path fill-rule="evenodd" clip-rule="evenodd" d="M35.8799 10.1607C34.8629 10.6207 33.7439 10.8997 32.6479 11.0837C33.1679 10.9957 33.9359 10.0537 34.2429 9.67173C34.7109 9.09073 35.0999 8.42673 35.3189 7.71173C35.3469 7.65573 35.3689 7.58573 35.3129 7.54273C35.2429 7.51573 35.1969 7.52973 35.1409 7.55773C33.9275 8.20568 32.6378 8.69951 31.3019 9.02773C31.2556 9.04214 31.2062 9.04321 31.1593 9.03083C31.1125 9.01845 31.07 8.99311 31.0369 8.95773C30.9343 8.83458 30.8223 8.71957 30.7019 8.61373C30.1474 8.13603 29.5193 7.75107 28.8419 7.47373C27.9377 7.10749 26.9624 6.95024 25.9889 7.01373C25.0433 7.07802 24.1213 7.33855 23.2819 7.77873C22.4411 8.2183 21.6986 8.82464 21.0999 9.56073C20.4786 10.325 20.0334 11.2168 19.7959 12.1727C19.5719 13.0927 19.5899 14.0007 19.7259 14.9297C19.7479 15.0837 19.7339 15.1047 19.5949 15.0837C14.3189 14.3007 9.94891 12.4127 6.39991 8.37073C6.24591 8.19473 6.16191 8.19473 6.03591 8.38373C4.48291 10.7117 5.23591 14.4507 7.17591 16.2887C7.43491 16.5337 7.69991 16.7787 7.98691 17.0017C7.88291 17.0237 6.59191 16.8837 5.44091 16.2887C5.28691 16.1917 5.20991 16.2477 5.19591 16.4217C5.18592 16.6745 5.19998 16.9276 5.23791 17.1777C5.53591 19.5377 7.16991 21.7197 9.40791 22.5717C9.67391 22.6827 9.96691 22.7817 10.2539 22.8297C9.74391 22.9417 9.21891 23.0217 7.75691 22.9077C7.57491 22.8717 7.50491 22.9627 7.57491 23.1377C8.67291 26.1327 11.0449 27.0237 12.8209 27.5307C13.0589 27.5727 13.2969 27.5727 13.5349 27.6287C13.5209 27.6497 13.5069 27.6497 13.4929 27.6707C12.9029 28.5687 10.8609 29.2377 9.90991 29.5707C8.17991 30.1747 6.29691 30.4467 4.46791 30.2667C4.17591 30.2237 4.11391 30.2267 4.03491 30.2667C3.95491 30.3167 4.02491 30.3867 4.11891 30.4617C4.48891 30.7067 4.86691 30.9237 5.25191 31.1337C6.40786 31.75 7.62779 32.2379 8.88991 32.5887C15.4269 34.3937 22.7899 33.0677 27.6999 28.1907C31.5529 24.3607 32.9039 19.0797 32.9039 13.7907C32.9039 13.5847 33.1479 13.4707 33.2939 13.3607C34.2969 12.6077 35.0939 11.7057 35.8419 10.6987C36.0099 10.4727 35.9999 10.2717 35.9999 10.1887V10.1607C35.9999 10.0767 36.0099 10.1017 35.8799 10.1607Z" fill="#FEC63E"/>
</svg>
