<svg width="200" height="124" viewBox="0 0 200 124" fill="none" xmlns="http://www.w3.org/2000/svg">
<path d="M18.25 19.124C21.376 19 29 18.75 32.876 17.874C32.75 19.5 32.5 24.5 32.5 34V38.25C36 35.374 38.876 33.874 42.376 33.874C46.626 33.874 49.5 35.75 51.376 38.5C53 41.126 53.876 44.75 53.876 48.626C53.876 60.25 48.376 66.876 37.25 66.876C34.25 66.876 30.624 65.876 28.5 64.75C27 65.25 25 66.25 23 66.876L22.374 66.5C22.5 63.124 22.5 56.75 22.5 48.124V32.124C22.5 28.124 22.374 25.374 22.25 23C22.124 21.374 21.75 21.124 18 21.124L18.25 19.124ZM37.25 64.5C41.5 64.5 43.5 59.374 43.5 49.874C43.5 46 42.874 42.75 41.75 40.624C40.75 39 39.5 38.124 37.75 38.124C35.874 38.124 34.25 39.25 33.124 40.874C32.5 41.75 32.25 42.5 32.25 52.374C32.25 60.5 32.626 60.75 33.126 61.75C34 63.626 35.626 64.5 37.25 64.5ZM75.75 66.126C73.124 66.126 70.5 65.874 66.374 65.874C62 65.874 59.874 66.126 57.75 66.126V64C61.25 63.874 61.75 63.25 61.876 61.874C62 60.374 62.126 58 62.126 54.124V46.124C62.126 42.874 62.126 40.25 62 39.124C61.874 38 61.374 37.624 58.124 37.75V35.624C62.5 35.25 67.75 35.124 72 34.25C71.874 35.876 71.75 38.876 71.75 45.75V54.376C71.75 58.376 71.876 60.126 72 61.876C72.126 63.626 72.626 63.876 75.75 64.25V66.126ZM66.374 19.75C69.626 19.75 71.5 21.626 71.5 25C71.5 27.876 69.374 29.876 66.124 29.876C63.25 29.876 61.25 27.876 61.25 25C61.25 22 63.25 19.75 66.376 19.75H66.374ZM79 19.124C83.876 19 89.626 18.5 92.626 17.874C92.457 23.039 92.373 28.2063 92.374 33.374V49C94.75 48.374 99.874 42.124 101.874 38.5C102.25 37.75 102.25 37.374 101.25 37.374L98.5 37.124V35C103.126 35.126 107.876 34.874 112.626 34.624V36.75C109.126 37.126 107.75 37.376 106.374 38.5C104.5 40.126 102.374 42.376 100.374 44.75C101.874 47.876 108.126 59.376 110.5 62.5C111.25 63.626 112.376 64 113.626 64L115.374 64.126L115.25 66.25C109.25 66.25 104.124 66.5 101.374 67C99.874 63.5 95.374 55 94 52.374C93.25 51 92.874 50.5 92.374 50.624C92.374 55.75 92.25 58.25 92.5 61.874C92.626 63.5 93 64 96.376 64.124V66.25C94 66.25 91.5 66 87.376 66C82.5 66 80.376 66.25 78.5 66.25V64.124C81.75 64 82.25 63.376 82.376 62.124C82.5 60.624 82.624 57.374 82.624 50.874V34.75C82.624 29.624 82.624 25.75 82.5 22.5C82.5 21.75 82 21.374 81 21.374H78.874L79 19.124ZM48.876 97C46.75 103.75 42.626 107 35.75 107C29.874 107 26.124 105.374 23.5 101.874C21.5 99.25 20.5 95.374 20.5 91C20.5 81.374 26.376 74 37.126 74C43.626 74 48.376 77 48.376 81.876C48.376 85.25 45.626 86.624 43.376 86.624C42.626 86.624 41.5 86.376 40.876 86C40.126 85.5 39.75 84.75 40 83.75C40.126 82.75 40.376 82.124 40.376 81.124C40.376 78 39.25 76.5 36.876 76.5C33 76.5 31 82.126 31 89.876C31 93 31.376 96.5 32.5 98.624C33.75 101.5 35.75 103.124 38.75 103.124C42.5 103.124 44.876 101 46.626 96.124L48.876 97ZM56 87.876C56 83.876 55.874 80.75 55.624 79.124C55.5 78.25 55 77.876 54.124 77.876H51.874V75.75C55.624 75.624 60.75 75.374 64.374 74.25L64.75 74.5C65 76 65.25 79.626 65.376 81.876H65.624C67.252 77.5 69.5 74 74.126 74C76.752 74 78.752 76.126 78.752 79C78.752 83.126 75.626 84.376 74.376 84.376C73.128 84.376 72.252 84 71.876 83.124C71.252 81.75 70.876 81 69.628 81C68.252 81 67.502 82.25 66.628 84.25C66.252 85.376 66.002 86.626 66.002 88.75C66.002 95.876 66.002 99.876 66.128 101.626C66.252 103.374 66.876 103.874 71.876 104L71.752 106.126C68.252 106 65.126 105.874 61.502 105.874C57.752 105.874 55.002 106 51.876 106.126L52.25 104C55.25 103.874 56 103.5 56 102.25C56.126 100.5 56.25 97.124 56.25 93.25V87.874H56V87.876ZM98.376 82.126C98.376 78.374 97.124 76.374 94.624 76.374C91.75 76.374 90.376 78 90.376 81C90.376 81.876 90.5 82.626 90.624 83.376C90.75 84.124 90.5 84.876 89.876 85.25C89 85.876 87.5 86.376 86.376 86.376C84 86.376 82 85.248 82 82.5C82 78.5 87.876 74 96.126 74C102.874 74 105.874 76.75 107 78.5C107.626 79.5 108 80.626 108 81.876V100.25C108 102.376 108.626 102.876 109.376 102.876C110.376 102.876 111.5 101.25 112 98.5L114.126 99.5C113 104.876 109.75 107.126 105.25 107.126C101.374 107.126 99.25 105.5 98.624 102.25C95.624 105.25 92.5 107.126 89.25 107.126C84 107.126 80.5 103.626 80.5 97.874C80.5 94.374 82 92.374 84.626 91.25C88.874 89.374 95.25 87.5 98.374 85.25V82.124L98.376 82.126ZM90.5 96C90.5 98.75 91.626 101.75 94.376 101.75C96.376 101.75 97.25 100.5 97.876 99.25C98.124 98.624 98.25 97.5 98.25 96.25V87.75C96.874 88.626 94.75 89.626 93.124 90.626C91.624 91.626 90.5 92.874 90.5 96ZM115.25 75.126L119.25 75.25V73.25C119.376 68 120.626 64.124 123.376 61.374C125.876 58.874 128.876 57.624 132.5 57.624C137.626 57.624 140.376 60.124 140.376 63.374C140.376 65.75 138.376 67.374 135.624 67.374C134.124 67.374 133.124 66.374 133.124 64.874C133.124 62.25 132.75 60.126 130.876 60.126C129.624 60.126 128.876 61.25 128.624 63.376C128.376 65.376 128.75 69.126 129 75H135.126L134.75 77.5L129 77.876C128.874 80.25 128.874 84.376 128.874 89.25C128.874 93.876 128.874 98 129 101.25C129.126 102.876 129.376 103.5 130.75 103.626C132 103.75 133 103.874 134.126 103.874L133.872 106C131.498 106 127.748 105.75 124.498 105.75C121.122 105.75 117.122 106 114.872 106L114.998 103.874C118.248 103.75 118.748 103.374 118.874 102C119.122 99.874 119.122 96.624 119.122 92.25V77.75L114.874 77.5L115.248 75.124L115.25 75.126Z" fill="#FEC63E"/>
<path d="M158.126 75.126L157.874 77.5L150.25 78C150.25 80.626 150.124 84.5 150.124 89.75C150.124 95.25 150.124 99 150.376 101.25C150.5 102.876 151.124 103.626 152.376 103.626C155 103.626 156.624 100.75 157.25 98.126H158.25L159.126 101C157.626 104.626 153.874 107.126 148.374 107.126C145.374 107.126 142.75 106.126 141.5 104.626C140.624 103.5 140.25 102.126 140.25 100.126C140.25 95 140.5 83.5 140.5 78L136.5 77.624L136.75 75.25H140.5C140.626 72.874 140.626 70.124 140.626 67.624C145 66.5 148.248 65.126 150 64L150.75 64.126C150.532 67.8303 150.406 71.5394 150.374 75.25H158.126V75.124V75.126Z" fill="#FEC63E"/>
<path d="M190 10V114H10V10H190ZM200 0H0V124H200V0Z" fill="#FEC63E"/>
</svg>
